<?xml version="1.0" encoding="utf-8"?>
<!-- Svg Vector Icons : http://www.onlinewebfonts.com/icon -->
<!DOCTYPE svg PUBLIC "-//W3C//DTD SVG 1.1//EN" "http://www.w3.org/Graphics/SVG/1.1/DTD/svg11.dtd">
<svg version="1.1" xmlns="http://www.w3.org/2000/svg" xmlns:xlink="http://www.w3.org/1999/xlink" x="0px" y="0px" viewBox="0 0 256 256" enable-background="new 0 0 256 256" xml:space="preserve">
<metadata> Svg Vector Icons : http://www.onlinewebfonts.com/icon </metadata>
<g><g><path fill="#000000" d="M204.7,84.1L173,52.4l-95.1,95.1l0,0l0,0l0,0l0,0l-15.2,46.9l46.9-15.2l0,0l0,0l0,0l0,0L204.7,84.1z"/><path fill="#000000" d="M215.4,73.3l-31.7-31.7l20.9-20.9l31.7,31.7L215.4,73.3z"/><path fill="#000000" d="M194.4,246H61.6c-13.8,0-26.7-5.4-36.5-15.1c-9.8-9.7-15.1-22.7-15.1-36.5V61.6c0-13.8,5.4-26.8,15.1-36.5C34.9,15.4,47.8,10,61.6,10H128c5.9,0,10.7,4.8,10.7,10.7c0,5.9-4.8,10.7-10.7,10.7H61.6c-8,0-15.6,3.1-21.3,8.8c-5.7,5.7-8.8,13.3-8.8,21.3v132.8c0,8.1,3.1,15.6,8.8,21.3c5.7,5.7,13.3,8.9,21.3,8.9h132.8c8.1,0,15.6-3.1,21.3-8.8c5.7-5.7,8.9-13.3,8.9-21.3V128c0-5.9,4.8-10.7,10.7-10.7S246,122.1,246,128v66.4c0,13.8-5.4,26.8-15.1,36.5C221.1,240.6,208.2,246,194.4,246z"/></g></g>
</svg>